<svg width="1280" height="640" viewBox="0 0 1280 640" fill="none" xmlns="http://www.w3.org/2000/svg">
<rect width="1280" height="640" fill="white"/>
<path d="M309.243 333.034C311.112 338.17 308.464 343.848 303.328 345.718C298.193 347.587 292.514 344.939 290.645 339.803C288.776 334.668 291.424 328.989 296.559 327.12C301.695 325.251 307.373 327.899 309.243 333.034Z" fill="black"/>
<path d="M241.208 247.38L249.197 244.472L245.873 273.361L224.037 281.308C223.904 279.946 224.123 278.531 224.744 277.201L236.74 251.473C237.628 249.57 239.235 248.098 241.208 247.38Z" fill="black"/>
<path d="M250.031 271.847L253.356 242.958L275.498 234.899L296.615 254.892L250.031 271.847Z" fill="black"/>
<path d="M251.385 275.567L291.632 313.673L297.969 258.612L251.385 275.567Z" fill="black"/>
<path d="M323.963 249.151L302.127 257.098L295.83 311.812C296.079 311.452 296.3 311.067 296.491 310.657L323.256 253.259C323.877 251.928 324.096 250.513 323.963 249.151Z" fill="black"/>
<path d="M300.773 253.379L279.657 233.386L287.647 230.477C289.62 229.759 291.797 229.854 293.7 230.742L319.427 242.738C320.758 243.359 321.835 244.302 322.609 245.431L300.773 253.379Z" fill="black"/>
<path d="M287.219 314.946C286.798 314.83 286.38 314.677 285.971 314.486L228.573 287.721C227.242 287.1 226.165 286.157 225.391 285.028L247.227 277.081L287.219 314.946Z" fill="black"/>
<path d="M411.111 347.6C405.244 347.6 399.763 346.533 394.667 344.4C389.57 342.207 385.067 339.215 381.156 335.422C377.304 331.63 374.281 327.215 372.089 322.178C369.896 317.141 368.8 311.748 368.8 306C368.8 300.252 369.896 294.859 372.089 289.822C374.281 284.785 377.304 280.37 381.156 276.578C385.067 272.785 389.57 269.822 394.667 267.689C399.763 265.496 405.244 264.4 411.111 264.4C416.385 264.4 421.363 265.259 426.044 266.978C430.726 268.696 434.904 271.126 438.578 274.267L434.044 292.933C431.852 289.259 428.83 286.178 424.978 283.689C421.126 281.141 416.681 279.867 411.644 279.867C406.844 279.867 402.489 281.052 398.578 283.422C394.726 285.733 391.674 288.874 389.422 292.844C387.17 296.756 386.044 301.141 386.044 306C386.044 310.8 387.17 315.185 389.422 319.156C391.674 323.126 394.726 326.296 398.578 328.667C402.489 330.978 406.844 332.133 411.644 332.133C416.622 332.133 421.037 330.889 424.889 328.4C428.8 325.852 431.852 322.741 434.044 319.067L438.578 337.733C434.844 340.815 430.637 343.244 425.956 345.022C421.333 346.741 416.385 347.6 411.111 347.6ZM447.242 346V260.667H462.708V296.667C464.605 294.77 466.768 293.348 469.197 292.4C471.686 291.393 474.323 290.889 477.108 290.889C480.901 290.889 484.427 291.807 487.686 293.644C491.005 295.422 493.671 298.059 495.686 301.556C497.76 304.993 498.797 309.17 498.797 314.089V346H483.331V316.133C483.331 313.17 482.442 310.533 480.664 308.222C478.886 305.911 476.338 304.756 473.019 304.756C470.353 304.756 467.953 305.674 465.819 307.511C463.745 309.289 462.708 312.104 462.708 315.956V346H447.242ZM530.114 347.778C526.381 347.778 522.855 346.889 519.536 345.111C516.218 343.274 513.521 340.637 511.447 337.2C509.432 333.704 508.425 329.496 508.425 324.578V292.667H523.892V322.533C523.892 325.496 524.781 328.133 526.558 330.444C528.395 332.756 530.944 333.911 534.203 333.911C536.869 333.911 539.24 332.963 541.314 331.067C543.447 329.111 544.514 326.326 544.514 322.711V292.667H559.981V346H545.936V340.4C544.04 342.77 541.699 344.607 538.914 345.911C536.188 347.156 533.255 347.778 530.114 347.778ZM597.875 347.778C592.601 347.778 587.771 346.504 583.386 343.956C579.001 341.407 575.505 337.97 572.897 333.644C570.349 329.319 569.075 324.548 569.075 319.333C569.075 314.059 570.349 309.289 572.897 305.022C575.505 300.696 579.001 297.259 583.386 294.711C587.771 292.163 592.601 290.889 597.875 290.889C601.549 290.889 605.016 291.511 608.275 292.756C611.594 293.941 614.527 295.719 617.075 298.089L613.075 313.822C611.594 311.393 609.608 309.289 607.119 307.511C604.69 305.674 601.816 304.756 598.497 304.756C595.712 304.756 593.223 305.407 591.031 306.711C588.838 308.015 587.119 309.763 585.875 311.956C584.631 314.148 584.008 316.607 584.008 319.333C584.008 322 584.631 324.459 585.875 326.711C587.119 328.904 588.838 330.652 591.031 331.956C593.223 333.259 595.712 333.911 598.497 333.911C601.816 333.911 604.69 333.022 607.119 331.244C609.608 329.407 611.594 327.274 613.075 324.844L617.075 340.578C614.527 342.948 611.594 344.756 608.275 346C605.016 347.185 601.549 347.778 597.875 347.778ZM660.583 346L639.339 316.667L656.85 292.667H673.472L656.228 315.333L678.806 346H660.583ZM625.117 346V260.667H640.583V346H625.117ZM684.794 346V260.667H700.261V346H684.794ZM739.761 347.778C733.776 347.778 728.502 346.533 723.939 344.044C719.376 341.556 715.82 338.148 713.272 333.822C710.724 329.437 709.45 324.43 709.45 318.8C709.45 313.407 710.694 308.637 713.183 304.489C715.672 300.281 719.02 296.963 723.228 294.533C727.494 292.104 732.206 290.889 737.361 290.889C742.635 290.889 747.346 292.104 751.494 294.533C755.643 296.904 758.902 300.163 761.272 304.311C763.702 308.459 764.917 313.17 764.917 318.444V323.867H732.383C730.902 323.867 729.48 323.778 728.117 323.6C726.754 323.422 725.391 323.215 724.028 322.978C724.739 326.533 726.487 329.437 729.272 331.689C732.117 333.881 735.731 334.978 740.117 334.978C743.494 334.978 746.517 334.296 749.183 332.933C751.909 331.57 754.131 329.881 755.85 327.867L759.228 341.733C756.561 343.748 753.539 345.259 750.161 346.267C746.843 347.274 743.376 347.778 739.761 347.778ZM723.672 313.644C726.635 312.993 729.539 312.667 732.383 312.667H741.806C743.465 312.667 745.035 312.726 746.517 312.844C747.998 312.963 749.391 313.17 750.694 313.467C749.806 310.267 748.176 307.748 745.806 305.911C743.494 304.074 740.62 303.156 737.183 303.156C733.924 303.156 731.08 304.104 728.65 306C726.28 307.837 724.62 310.385 723.672 313.644ZM814.736 347.6C808.869 347.6 803.388 346.533 798.292 344.4C793.195 342.207 788.692 339.215 784.781 335.422C780.929 331.63 777.906 327.215 775.714 322.178C773.521 317.141 772.425 311.748 772.425 306C772.425 300.252 773.521 294.859 775.714 289.822C777.906 284.785 780.929 280.37 784.781 276.578C788.692 272.785 793.195 269.822 798.292 267.689C803.388 265.496 808.869 264.4 814.736 264.4C820.01 264.4 824.988 265.259 829.669 266.978C834.351 268.696 838.529 271.126 842.203 274.267L837.669 292.933C835.477 289.259 832.455 286.178 828.603 283.689C824.751 281.141 820.306 279.867 815.269 279.867C810.469 279.867 806.114 281.052 802.203 283.422C798.351 285.733 795.299 288.874 793.047 292.844C790.795 296.756 789.669 301.141 789.669 306C789.669 310.8 790.795 315.185 793.047 319.156C795.299 323.126 798.351 326.296 802.203 328.667C806.114 330.978 810.469 332.133 815.269 332.133C820.247 332.133 824.662 330.889 828.514 328.4C832.425 325.852 835.477 322.741 837.669 319.067L842.203 337.733C838.469 340.815 834.262 343.244 829.581 345.022C824.958 346.741 820.01 347.6 814.736 347.6ZM850.867 346V260.667H866.333V296.667C868.23 294.77 870.393 293.348 872.822 292.4C875.311 291.393 877.948 290.889 880.733 290.889C884.526 290.889 888.052 291.807 891.311 293.644C894.63 295.422 897.296 298.059 899.311 301.556C901.385 304.993 902.422 309.17 902.422 314.089V346H886.956V316.133C886.956 313.17 886.067 310.533 884.289 308.222C882.511 305.911 879.963 304.756 876.644 304.756C873.978 304.756 871.578 305.674 869.444 307.511C867.37 309.289 866.333 312.104 866.333 315.956V346H850.867ZM940.761 347.778C934.776 347.778 929.502 346.533 924.939 344.044C920.376 341.556 916.82 338.148 914.272 333.822C911.724 329.437 910.45 324.43 910.45 318.8C910.45 313.407 911.694 308.637 914.183 304.489C916.672 300.281 920.02 296.963 924.228 294.533C928.494 292.104 933.206 290.889 938.361 290.889C943.635 290.889 948.346 292.104 952.494 294.533C956.643 296.904 959.902 300.163 962.272 304.311C964.702 308.459 965.917 313.17 965.917 318.444V323.867H933.383C931.902 323.867 930.48 323.778 929.117 323.6C927.754 323.422 926.391 323.215 925.028 322.978C925.739 326.533 927.487 329.437 930.272 331.689C933.117 333.881 936.731 334.978 941.117 334.978C944.494 334.978 947.517 334.296 950.183 332.933C952.909 331.57 955.131 329.881 956.85 327.867L960.228 341.733C957.561 343.748 954.539 345.259 951.161 346.267C947.843 347.274 944.376 347.778 940.761 347.778ZM924.672 313.644C927.635 312.993 930.539 312.667 933.383 312.667H942.806C944.465 312.667 946.035 312.726 947.517 312.844C948.998 312.963 950.391 313.17 951.694 313.467C950.806 310.267 949.176 307.748 946.806 305.911C944.494 304.074 941.62 303.156 938.183 303.156C934.924 303.156 932.08 304.104 929.65 306C927.28 307.837 925.62 310.385 924.672 313.644ZM992.003 347.778C988.388 347.778 984.714 347.185 980.981 346C977.306 344.815 974.432 343.215 972.358 341.2L976.181 326.622C977.899 328.993 980.269 331.067 983.292 332.844C986.373 334.622 989.544 335.511 992.803 335.511C994.995 335.511 996.566 335.096 997.514 334.267C998.521 333.437 999.025 332.43 999.025 331.244C999.025 329.881 998.521 328.904 997.514 328.311C996.506 327.659 995.469 327.126 994.403 326.711L986.936 323.867C985.277 323.215 983.381 322.326 981.247 321.2C979.114 320.074 977.247 318.474 975.647 316.4C974.106 314.326 973.336 311.6 973.336 308.222C973.336 305.141 974.106 302.296 975.647 299.689C977.188 297.081 979.41 294.978 982.314 293.378C985.277 291.719 988.832 290.889 992.981 290.889C996.832 290.889 1000.42 291.541 1003.74 292.844C1007.11 294.148 1009.57 295.6 1011.11 297.2L1007.56 311.244C1005.54 308.637 1003.14 306.652 1000.36 305.289C997.632 303.867 995.025 303.156 992.536 303.156C990.64 303.156 989.247 303.541 988.358 304.311C987.469 305.081 987.025 305.97 987.025 306.978C987.025 307.748 987.321 308.519 987.914 309.289C988.566 310 989.632 310.652 991.114 311.244L998.047 313.822C1000.06 314.533 1002.2 315.481 1004.45 316.667C1006.76 317.852 1008.71 319.511 1010.31 321.644C1011.91 323.719 1012.71 326.593 1012.71 330.267C1012.71 335.422 1010.79 339.63 1006.94 342.889C1003.14 346.148 998.166 347.778 992.003 347.778ZM1027.84 346V304.933H1017.88V292.667H1028.11V274.889H1043.04V292.667H1053.62V304.933H1043.31V346H1027.84Z" fill="black"/>
<path d="M400.932 411V386H414.266V390.167H405.766V394.167H413.432V398.333H405.766V411H400.932ZM423.539 411.556C421.891 411.556 420.382 411.157 419.011 410.361C417.641 409.565 416.548 408.491 415.734 407.139C414.937 405.787 414.539 404.296 414.539 402.667C414.539 401.019 414.937 399.528 415.734 398.194C416.548 396.843 417.641 395.769 419.011 394.972C420.382 394.176 421.891 393.778 423.539 393.778C425.206 393.778 426.715 394.176 428.067 394.972C429.437 395.769 430.521 396.843 431.317 398.194C432.132 399.528 432.539 401.019 432.539 402.667C432.539 404.296 432.132 405.787 431.317 407.139C430.521 408.491 429.437 409.565 428.067 410.361C426.715 411.157 425.206 411.556 423.539 411.556ZM423.539 407.222C424.372 407.222 425.122 407.019 425.789 406.611C426.474 406.204 427.011 405.657 427.4 404.972C427.808 404.269 428.011 403.5 428.011 402.667C428.011 401.815 427.808 401.046 427.4 400.361C427.011 399.676 426.474 399.13 425.789 398.722C425.122 398.315 424.372 398.111 423.539 398.111C422.706 398.111 421.946 398.315 421.261 398.722C420.595 399.13 420.058 399.676 419.65 400.361C419.261 401.046 419.067 401.815 419.067 402.667C419.067 403.5 419.261 404.269 419.65 404.972C420.058 405.657 420.595 406.204 421.261 406.611C421.946 407.019 422.706 407.222 423.539 407.222ZM435.372 411V394.333H439.706V397.194C440.28 396.231 441.002 395.491 441.872 394.972C442.761 394.435 443.798 394.167 444.984 394.167L446.039 398.444C445.687 398.333 445.289 398.278 444.845 398.278C443.456 398.278 442.335 398.731 441.484 399.639C440.632 400.528 440.206 401.806 440.206 403.472V411H435.372ZM456.466 419.333V394.333H460.633V395.972C461.281 395.324 462.04 394.815 462.911 394.444C463.799 394.074 464.772 393.889 465.827 393.889C467.383 393.889 468.79 394.287 470.049 395.083C471.309 395.861 472.309 396.917 473.049 398.25C473.809 399.583 474.188 401.056 474.188 402.667C474.188 404.278 473.809 405.75 473.049 407.083C472.309 408.398 471.309 409.454 470.049 410.25C468.79 411.046 467.383 411.444 465.827 411.444C464.938 411.444 464.114 411.306 463.355 411.028C462.596 410.769 461.911 410.407 461.299 409.944V419.333H456.466ZM465.272 407.194C466.087 407.194 466.827 406.991 467.494 406.583C468.161 406.176 468.688 405.63 469.077 404.944C469.485 404.259 469.688 403.5 469.688 402.667C469.688 401.833 469.485 401.074 469.077 400.389C468.688 399.704 468.161 399.157 467.494 398.75C466.827 398.343 466.087 398.139 465.272 398.139C464.457 398.139 463.716 398.343 463.049 398.75C462.383 399.157 461.846 399.704 461.438 400.389C461.049 401.074 460.855 401.833 460.855 402.667C460.855 403.5 461.049 404.259 461.438 404.944C461.846 405.63 462.383 406.176 463.049 406.583C463.716 406.991 464.457 407.194 465.272 407.194ZM477.013 411V394.333H481.346V397.194C481.92 396.231 482.643 395.491 483.513 394.972C484.402 394.435 485.439 394.167 486.624 394.167L487.68 398.444C487.328 398.333 486.93 398.278 486.485 398.278C485.096 398.278 483.976 398.731 483.124 399.639C482.272 400.528 481.846 401.806 481.846 403.472V411H477.013ZM489.842 411V394.333H494.675V411H489.842ZM492.259 391.917C491.536 391.917 490.925 391.667 490.425 391.167C489.925 390.667 489.675 390.056 489.675 389.333C489.675 388.593 489.925 387.981 490.425 387.5C490.925 387 491.536 386.75 492.259 386.75C492.999 386.75 493.611 387 494.092 387.5C494.592 387.981 494.842 388.593 494.842 389.333C494.842 390.056 494.592 390.667 494.092 391.167C493.611 391.667 492.999 391.917 492.259 391.917ZM506.547 411.556C504.899 411.556 503.389 411.157 502.019 410.361C500.649 409.565 499.556 408.491 498.741 407.139C497.945 405.787 497.547 404.296 497.547 402.667C497.547 401.019 497.945 399.528 498.741 398.194C499.556 396.843 500.649 395.769 502.019 394.972C503.389 394.176 504.899 393.778 506.547 393.778C507.695 393.778 508.778 393.972 509.797 394.361C510.834 394.731 511.751 395.287 512.547 396.028L511.297 400.944C510.834 400.185 510.214 399.528 509.436 398.972C508.677 398.398 507.778 398.111 506.741 398.111C505.871 398.111 505.093 398.315 504.408 398.722C503.723 399.13 503.186 399.676 502.797 400.361C502.408 401.046 502.214 401.815 502.214 402.667C502.214 403.5 502.408 404.269 502.797 404.972C503.186 405.657 503.723 406.204 504.408 406.611C505.093 407.019 505.871 407.222 506.741 407.222C507.778 407.222 508.677 406.944 509.436 406.389C510.214 405.815 510.834 405.148 511.297 404.389L512.547 409.306C511.751 410.046 510.834 410.611 509.797 411C508.778 411.37 507.695 411.556 506.547 411.556ZM523.699 411.556C521.828 411.556 520.18 411.167 518.754 410.389C517.328 409.611 516.217 408.546 515.421 407.194C514.625 405.824 514.227 404.259 514.227 402.5C514.227 400.815 514.615 399.324 515.393 398.028C516.171 396.713 517.217 395.676 518.532 394.917C519.865 394.157 521.338 393.778 522.949 393.778C524.597 393.778 526.069 394.157 527.365 394.917C528.662 395.657 529.68 396.676 530.421 397.972C531.18 399.269 531.56 400.741 531.56 402.389V404.083H521.393C520.93 404.083 520.486 404.056 520.06 404C519.634 403.944 519.208 403.88 518.782 403.806C519.004 404.917 519.551 405.824 520.421 406.528C521.31 407.213 522.44 407.556 523.81 407.556C524.865 407.556 525.81 407.343 526.643 406.917C527.495 406.491 528.19 405.963 528.727 405.333L529.782 409.667C528.949 410.296 528.004 410.769 526.949 411.083C525.912 411.398 524.828 411.556 523.699 411.556ZM518.671 400.889C519.597 400.685 520.504 400.583 521.393 400.583H524.338C524.856 400.583 525.347 400.602 525.81 400.639C526.273 400.676 526.708 400.741 527.115 400.833C526.838 399.833 526.328 399.046 525.588 398.472C524.865 397.898 523.967 397.611 522.893 397.611C521.875 397.611 520.986 397.907 520.227 398.5C519.486 399.074 518.967 399.87 518.671 400.889ZM534.295 411V384.333H539.128V411H534.295ZM551.472 411.556C549.602 411.556 547.954 411.167 546.528 410.389C545.102 409.611 543.991 408.546 543.194 407.194C542.398 405.824 542 404.259 542 402.5C542 400.815 542.389 399.324 543.167 398.028C543.944 396.713 544.991 395.676 546.306 394.917C547.639 394.157 549.111 393.778 550.722 393.778C552.37 393.778 553.843 394.157 555.139 394.917C556.435 395.657 557.454 396.676 558.194 397.972C558.954 399.269 559.333 400.741 559.333 402.389V404.083H549.167C548.704 404.083 548.259 404.056 547.833 404C547.407 403.944 546.981 403.88 546.556 403.806C546.778 404.917 547.324 405.824 548.194 406.528C549.083 407.213 550.213 407.556 551.583 407.556C552.639 407.556 553.583 407.343 554.417 406.917C555.269 406.491 555.963 405.963 556.5 405.333L557.556 409.667C556.722 410.296 555.778 410.769 554.722 411.083C553.685 411.398 552.602 411.556 551.472 411.556ZM546.444 400.889C547.37 400.685 548.278 400.583 549.167 400.583H552.111C552.63 400.583 553.12 400.602 553.583 400.639C554.046 400.676 554.481 400.741 554.889 400.833C554.611 399.833 554.102 399.046 553.361 398.472C552.639 397.898 551.741 397.611 550.667 397.611C549.648 397.611 548.759 397.907 548 398.5C547.259 399.074 546.741 399.87 546.444 400.889ZM567.485 411.556C566.356 411.556 565.207 411.37 564.041 411C562.893 410.63 561.995 410.13 561.346 409.5L562.541 404.944C563.078 405.685 563.819 406.333 564.763 406.889C565.726 407.444 566.717 407.722 567.735 407.722C568.42 407.722 568.911 407.593 569.207 407.333C569.522 407.074 569.68 406.759 569.68 406.389C569.68 405.963 569.522 405.657 569.207 405.472C568.893 405.269 568.569 405.102 568.235 404.972L565.902 404.083C565.383 403.88 564.791 403.602 564.124 403.25C563.457 402.898 562.874 402.398 562.374 401.75C561.893 401.102 561.652 400.25 561.652 399.194C561.652 398.231 561.893 397.343 562.374 396.528C562.856 395.713 563.55 395.056 564.457 394.556C565.383 394.037 566.495 393.778 567.791 393.778C568.995 393.778 570.115 393.981 571.152 394.389C572.207 394.796 572.976 395.25 573.457 395.75L572.346 400.139C571.717 399.324 570.967 398.704 570.096 398.278C569.245 397.833 568.43 397.611 567.652 397.611C567.059 397.611 566.624 397.731 566.346 397.972C566.069 398.213 565.93 398.491 565.93 398.806C565.93 399.046 566.022 399.287 566.207 399.528C566.411 399.75 566.745 399.954 567.207 400.139L569.374 400.944C570.004 401.167 570.67 401.463 571.374 401.833C572.096 402.204 572.707 402.722 573.207 403.389C573.707 404.037 573.957 404.935 573.957 406.083C573.957 407.694 573.356 409.009 572.152 410.028C570.967 411.046 569.411 411.556 567.485 411.556ZM582.212 411.556C581.082 411.556 579.934 411.37 578.767 411C577.619 410.63 576.721 410.13 576.073 409.5L577.267 404.944C577.804 405.685 578.545 406.333 579.49 406.889C580.453 407.444 581.443 407.722 582.462 407.722C583.147 407.722 583.638 407.593 583.934 407.333C584.249 407.074 584.406 406.759 584.406 406.389C584.406 405.963 584.249 405.657 583.934 405.472C583.619 405.269 583.295 405.102 582.962 404.972L580.628 404.083C580.11 403.88 579.517 403.602 578.851 403.25C578.184 402.898 577.601 402.398 577.101 401.75C576.619 401.102 576.378 400.25 576.378 399.194C576.378 398.231 576.619 397.343 577.101 396.528C577.582 395.713 578.277 395.056 579.184 394.556C580.11 394.037 581.221 393.778 582.517 393.778C583.721 393.778 584.841 393.981 585.878 394.389C586.934 394.796 587.703 395.25 588.184 395.75L587.073 400.139C586.443 399.324 585.693 398.704 584.823 398.278C583.971 397.833 583.156 397.611 582.378 397.611C581.786 397.611 581.351 397.731 581.073 397.972C580.795 398.213 580.656 398.491 580.656 398.806C580.656 399.046 580.749 399.287 580.934 399.528C581.138 399.75 581.471 399.954 581.934 400.139L584.101 400.944C584.73 401.167 585.397 401.463 586.101 401.833C586.823 402.204 587.434 402.722 587.934 403.389C588.434 404.037 588.684 404.935 588.684 406.083C588.684 407.694 588.082 409.009 586.878 410.028C585.693 411.046 584.138 411.556 582.212 411.556ZM599.786 411V394.333H604.12V396.167C604.712 395.389 605.444 394.796 606.314 394.389C607.203 393.981 608.129 393.778 609.092 393.778C610.073 393.778 610.999 393.981 611.87 394.389C612.74 394.796 613.472 395.389 614.064 396.167C614.712 395.389 615.518 394.796 616.481 394.389C617.444 393.981 618.49 393.778 619.62 393.778C620.805 393.778 621.916 394.056 622.953 394.611C623.99 395.148 624.833 395.944 625.481 397C626.129 398.037 626.453 399.306 626.453 400.806V411H621.62V401.5C621.62 400.611 621.361 399.824 620.842 399.139C620.323 398.454 619.573 398.111 618.592 398.111C618.073 398.111 617.573 398.241 617.092 398.5C616.629 398.741 616.249 399.111 615.953 399.611C615.675 400.093 615.536 400.704 615.536 401.444V411H610.703V401.5C610.703 400.907 610.583 400.352 610.342 399.833C610.12 399.315 609.777 398.898 609.314 398.583C608.87 398.269 608.323 398.111 607.675 398.111C607.157 398.111 606.657 398.241 606.175 398.5C605.712 398.741 605.333 399.111 605.036 399.611C604.759 400.093 604.62 400.704 604.62 401.444V411H599.786ZM638.425 411.556C636.555 411.556 634.907 411.167 633.481 410.389C632.055 409.611 630.944 408.546 630.148 407.194C629.351 405.824 628.953 404.259 628.953 402.5C628.953 400.815 629.342 399.324 630.12 398.028C630.898 396.713 631.944 395.676 633.259 394.917C634.592 394.157 636.064 393.778 637.675 393.778C639.323 393.778 640.796 394.157 642.092 394.917C643.388 395.657 644.407 396.676 645.148 397.972C645.907 399.269 646.286 400.741 646.286 402.389V404.083H636.12C635.657 404.083 635.212 404.056 634.786 404C634.361 403.944 633.935 403.88 633.509 403.806C633.731 404.917 634.277 405.824 635.148 406.528C636.036 407.213 637.166 407.556 638.536 407.556C639.592 407.556 640.536 407.343 641.37 406.917C642.222 406.491 642.916 405.963 643.453 405.333L644.509 409.667C643.675 410.296 642.731 410.769 641.675 411.083C640.638 411.398 639.555 411.556 638.425 411.556ZM633.398 400.889C634.323 400.685 635.231 400.583 636.12 400.583H639.064C639.583 400.583 640.073 400.602 640.536 400.639C640.999 400.676 641.435 400.741 641.842 400.833C641.564 399.833 641.055 399.046 640.314 398.472C639.592 397.898 638.694 397.611 637.62 397.611C636.601 397.611 635.712 397.907 634.953 398.5C634.212 399.074 633.694 399.87 633.398 400.889ZM648.966 411V394.333H653.299V396.167C653.892 395.389 654.624 394.796 655.494 394.389C656.383 393.981 657.309 393.778 658.272 393.778C659.253 393.778 660.179 393.981 661.049 394.389C661.92 394.796 662.651 395.389 663.244 396.167C663.892 395.389 664.698 394.796 665.661 394.389C666.624 393.981 667.67 393.778 668.799 393.778C669.985 393.778 671.096 394.056 672.133 394.611C673.17 395.148 674.012 395.944 674.661 397C675.309 398.037 675.633 399.306 675.633 400.806V411H670.799V401.5C670.799 400.611 670.54 399.824 670.022 399.139C669.503 398.454 668.753 398.111 667.772 398.111C667.253 398.111 666.753 398.241 666.272 398.5C665.809 398.741 665.429 399.111 665.133 399.611C664.855 400.093 664.716 400.704 664.716 401.444V411H659.883V401.5C659.883 400.907 659.762 400.352 659.522 399.833C659.299 399.315 658.957 398.898 658.494 398.583C658.049 398.269 657.503 398.111 656.855 398.111C656.337 398.111 655.837 398.241 655.355 398.5C654.892 398.741 654.512 399.111 654.216 399.611C653.938 400.093 653.799 400.704 653.799 401.444V411H648.966ZM687.133 411.556C685.485 411.556 683.975 411.157 682.605 410.361C681.235 409.565 680.142 408.491 679.327 407.139C678.531 405.787 678.133 404.296 678.133 402.667C678.133 401.019 678.531 399.528 679.327 398.194C680.142 396.843 681.235 395.769 682.605 394.972C683.975 394.176 685.485 393.778 687.133 393.778C688.799 393.778 690.309 394.176 691.661 394.972C693.031 395.769 694.114 396.843 694.911 398.194C695.725 399.528 696.133 401.019 696.133 402.667C696.133 404.296 695.725 405.787 694.911 407.139C694.114 408.491 693.031 409.565 691.661 410.361C690.309 411.157 688.799 411.556 687.133 411.556ZM687.133 407.222C687.966 407.222 688.716 407.019 689.383 406.611C690.068 406.204 690.605 405.657 690.994 404.972C691.401 404.269 691.605 403.5 691.605 402.667C691.605 401.815 691.401 401.046 690.994 400.361C690.605 399.676 690.068 399.13 689.383 398.722C688.716 398.315 687.966 398.111 687.133 398.111C686.299 398.111 685.54 398.315 684.855 398.722C684.188 399.13 683.651 399.676 683.244 400.361C682.855 401.046 682.661 401.815 682.661 402.667C682.661 403.5 682.855 404.269 683.244 404.972C683.651 405.657 684.188 406.204 684.855 406.611C685.54 407.019 686.299 407.222 687.133 407.222ZM698.966 411V394.333H703.299V397.194C703.874 396.231 704.596 395.491 705.466 394.972C706.355 394.435 707.392 394.167 708.577 394.167L709.633 398.444C709.281 398.333 708.883 398.278 708.438 398.278C707.049 398.278 705.929 398.731 705.077 399.639C704.225 400.528 703.799 401.806 703.799 403.472V411H698.966ZM711.795 411V394.333H716.628V411H711.795ZM714.212 391.917C713.49 391.917 712.878 391.667 712.378 391.167C711.878 390.667 711.628 390.056 711.628 389.333C711.628 388.593 711.878 387.981 712.378 387.5C712.878 387 713.49 386.75 714.212 386.75C714.953 386.75 715.564 387 716.045 387.5C716.545 387.981 716.795 388.593 716.795 389.333C716.795 390.056 716.545 390.667 716.045 391.167C715.564 391.667 714.953 391.917 714.212 391.917ZM728.972 411.556C727.102 411.556 725.454 411.167 724.028 410.389C722.602 409.611 721.491 408.546 720.694 407.194C719.898 405.824 719.5 404.259 719.5 402.5C719.5 400.815 719.889 399.324 720.667 398.028C721.444 396.713 722.491 395.676 723.806 394.917C725.139 394.157 726.611 393.778 728.222 393.778C729.87 393.778 731.343 394.157 732.639 394.917C733.935 395.657 734.954 396.676 735.694 397.972C736.454 399.269 736.833 400.741 736.833 402.389V404.083H726.667C726.204 404.083 725.759 404.056 725.333 404C724.907 403.944 724.481 403.88 724.056 403.806C724.278 404.917 724.824 405.824 725.694 406.528C726.583 407.213 727.713 407.556 729.083 407.556C730.139 407.556 731.083 407.343 731.917 406.917C732.769 406.491 733.463 405.963 734 405.333L735.056 409.667C734.222 410.296 733.278 410.769 732.222 411.083C731.185 411.398 730.102 411.556 728.972 411.556ZM723.944 400.889C724.87 400.685 725.778 400.583 726.667 400.583H729.611C730.13 400.583 730.62 400.602 731.083 400.639C731.546 400.676 731.981 400.741 732.389 400.833C732.111 399.833 731.602 399.046 730.861 398.472C730.139 397.898 729.241 397.611 728.167 397.611C727.148 397.611 726.259 397.907 725.5 398.5C724.759 399.074 724.241 399.87 723.944 400.889ZM744.985 411.556C743.856 411.556 742.707 411.37 741.541 411C740.393 410.63 739.495 410.13 738.846 409.5L740.041 404.944C740.578 405.685 741.319 406.333 742.263 406.889C743.226 407.444 744.217 407.722 745.235 407.722C745.92 407.722 746.411 407.593 746.707 407.333C747.022 407.074 747.18 406.759 747.18 406.389C747.18 405.963 747.022 405.657 746.707 405.472C746.393 405.269 746.069 405.102 745.735 404.972L743.402 404.083C742.883 403.88 742.291 403.602 741.624 403.25C740.957 402.898 740.374 402.398 739.874 401.75C739.393 401.102 739.152 400.25 739.152 399.194C739.152 398.231 739.393 397.343 739.874 396.528C740.356 395.713 741.05 395.056 741.957 394.556C742.883 394.037 743.995 393.778 745.291 393.778C746.495 393.778 747.615 393.981 748.652 394.389C749.707 394.796 750.476 395.25 750.957 395.75L749.846 400.139C749.217 399.324 748.467 398.704 747.596 398.278C746.745 397.833 745.93 397.611 745.152 397.611C744.559 397.611 744.124 397.731 743.846 397.972C743.569 398.213 743.43 398.491 743.43 398.806C743.43 399.046 743.522 399.287 743.707 399.528C743.911 399.75 744.245 399.954 744.707 400.139L746.874 400.944C747.504 401.167 748.17 401.463 748.874 401.833C749.596 402.204 750.207 402.722 750.707 403.389C751.207 404.037 751.457 404.935 751.457 406.083C751.457 407.694 750.856 409.009 749.652 410.028C748.467 411.046 746.911 411.556 744.985 411.556ZM770.727 411.556C769.078 411.556 767.569 411.157 766.199 410.361C764.828 409.565 763.736 408.491 762.921 407.139C762.125 405.787 761.727 404.296 761.727 402.667C761.727 401.019 762.125 399.528 762.921 398.194C763.736 396.843 764.828 395.769 766.199 394.972C767.569 394.176 769.078 393.778 770.727 393.778C771.875 393.778 772.958 393.972 773.977 394.361C775.014 394.731 775.93 395.287 776.727 396.028L775.477 400.944C775.014 400.185 774.393 399.528 773.615 398.972C772.856 398.398 771.958 398.111 770.921 398.111C770.051 398.111 769.273 398.315 768.588 398.722C767.902 399.13 767.365 399.676 766.977 400.361C766.588 401.046 766.393 401.815 766.393 402.667C766.393 403.5 766.588 404.269 766.977 404.972C767.365 405.657 767.902 406.204 768.588 406.611C769.273 407.019 770.051 407.222 770.921 407.222C771.958 407.222 772.856 406.944 773.615 406.389C774.393 405.815 775.014 405.148 775.477 404.389L776.727 409.306C775.93 410.046 775.014 410.611 773.977 411C772.958 411.37 771.875 411.556 770.727 411.556ZM786.74 411.444C785.203 411.444 783.804 411.046 782.545 410.25C781.286 409.454 780.277 408.398 779.517 407.083C778.777 405.75 778.406 404.278 778.406 402.667C778.406 401.056 778.777 399.583 779.517 398.25C780.277 396.917 781.286 395.861 782.545 395.083C783.804 394.287 785.203 393.889 786.74 393.889C787.814 393.889 788.795 394.083 789.684 394.472C790.573 394.843 791.332 395.361 791.962 396.028V394.333H796.128V411H791.962V409.306C791.332 409.972 790.573 410.5 789.684 410.889C788.795 411.259 787.814 411.444 786.74 411.444ZM787.323 407.194C788.138 407.194 788.878 406.991 789.545 406.583C790.212 406.176 790.74 405.63 791.128 404.944C791.536 404.259 791.74 403.5 791.74 402.667C791.74 401.833 791.536 401.074 791.128 400.389C790.74 399.704 790.212 399.157 789.545 398.75C788.878 398.343 788.138 398.139 787.323 398.139C786.508 398.139 785.767 398.343 785.101 398.75C784.434 399.157 783.897 399.704 783.49 400.389C783.101 401.074 782.906 401.833 782.906 402.667C782.906 403.5 783.101 404.259 783.49 404.944C783.897 405.63 784.434 406.176 785.101 406.583C785.767 406.991 786.508 407.194 787.323 407.194ZM806.231 411.556C805.064 411.556 803.962 411.278 802.925 410.722C801.888 410.148 801.046 409.324 800.398 408.25C799.768 407.157 799.453 405.843 799.453 404.306V394.333H804.286V403.667C804.286 404.593 804.564 405.417 805.12 406.139C805.694 406.861 806.49 407.222 807.509 407.222C808.342 407.222 809.083 406.926 809.731 406.333C810.398 405.722 810.731 404.852 810.731 403.722V394.333H815.564V411H811.175V409.25C810.583 409.991 809.851 410.565 808.981 410.972C808.129 411.361 807.212 411.556 806.231 411.556ZM826.517 419.889C825.221 419.889 823.98 419.694 822.795 419.306C821.628 418.935 820.619 418.426 819.767 417.778L820.934 413C821.527 413.796 822.304 414.444 823.267 414.944C824.23 415.463 825.314 415.722 826.517 415.722C828.221 415.722 829.545 415.231 830.49 414.25C831.434 413.287 831.906 412.046 831.906 410.528V409.361C831.277 410.009 830.517 410.519 829.628 410.889C828.758 411.259 827.795 411.444 826.74 411.444C825.203 411.444 823.804 411.046 822.545 410.25C821.286 409.454 820.277 408.398 819.517 407.083C818.777 405.75 818.406 404.278 818.406 402.667C818.406 401.056 818.777 399.583 819.517 398.25C820.277 396.917 821.286 395.861 822.545 395.083C823.804 394.287 825.203 393.889 826.74 393.889C827.814 393.889 828.795 394.083 829.684 394.472C830.573 394.843 831.332 395.361 831.962 396.028V394.333H836.128V411.222C836.128 413.037 835.684 414.593 834.795 415.889C833.906 417.185 832.73 418.176 831.267 418.861C829.804 419.546 828.221 419.889 826.517 419.889ZM827.323 407.194C828.138 407.194 828.878 406.991 829.545 406.583C830.212 406.176 830.74 405.63 831.128 404.944C831.536 404.259 831.74 403.5 831.74 402.667C831.74 401.833 831.536 401.074 831.128 400.389C830.74 399.704 830.212 399.157 829.545 398.75C828.878 398.343 828.138 398.139 827.323 398.139C826.508 398.139 825.767 398.343 825.101 398.75C824.434 399.157 823.897 399.704 823.49 400.389C823.101 401.074 822.906 401.833 822.906 402.667C822.906 403.5 823.101 404.259 823.49 404.944C823.897 405.63 824.434 406.176 825.101 406.583C825.767 406.991 826.508 407.194 827.323 407.194ZM839.786 411V384.333H844.62V395.583C845.212 394.991 845.888 394.546 846.648 394.25C847.425 393.935 848.249 393.778 849.12 393.778C850.305 393.778 851.407 394.065 852.425 394.639C853.462 395.194 854.296 396.019 854.925 397.111C855.573 398.185 855.898 399.491 855.898 401.028V411H851.064V401.667C851.064 400.741 850.786 399.917 850.231 399.194C849.675 398.472 848.879 398.111 847.842 398.111C847.009 398.111 846.259 398.398 845.592 398.972C844.944 399.528 844.62 400.407 844.62 401.611V411H839.786ZM860.637 411V398.167H857.526V394.333H860.72V388.778H865.387V394.333H868.693V398.167H865.47V411H860.637ZM887.68 411.556C886.032 411.556 884.522 411.157 883.152 410.361C881.782 409.565 880.689 408.491 879.874 407.139C879.078 405.787 878.68 404.296 878.68 402.667C878.68 401.019 879.078 399.528 879.874 398.194C880.689 396.843 881.782 395.769 883.152 394.972C884.522 394.176 886.032 393.778 887.68 393.778C889.346 393.778 890.856 394.176 892.207 394.972C893.578 395.769 894.661 396.843 895.457 398.194C896.272 399.528 896.68 401.019 896.68 402.667C896.68 404.296 896.272 405.787 895.457 407.139C894.661 408.491 893.578 409.565 892.207 410.361C890.856 411.157 889.346 411.556 887.68 411.556ZM887.68 407.222C888.513 407.222 889.263 407.019 889.93 406.611C890.615 406.204 891.152 405.657 891.541 404.972C891.948 404.269 892.152 403.5 892.152 402.667C892.152 401.815 891.948 401.046 891.541 400.361C891.152 399.676 890.615 399.13 889.93 398.722C889.263 398.315 888.513 398.111 887.68 398.111C886.846 398.111 886.087 398.315 885.402 398.722C884.735 399.13 884.198 399.676 883.791 400.361C883.402 401.046 883.207 401.815 883.207 402.667C883.207 403.5 883.402 404.269 883.791 404.972C884.198 405.657 884.735 406.204 885.402 406.611C886.087 407.019 886.846 407.222 887.68 407.222ZM900.637 411V398.167H897.526V394.333H900.72V391.389C900.72 389.926 901.063 388.639 901.748 387.528C902.452 386.417 903.406 385.556 904.609 384.944C905.832 384.315 907.22 384 908.776 384C909.665 384 910.526 384.111 911.359 384.333C912.211 384.556 912.952 384.87 913.582 385.278C914.119 384.852 914.748 384.537 915.47 384.333C916.193 384.111 916.989 384 917.859 384C918.396 384 918.943 384.074 919.498 384.222C920.054 384.37 920.535 384.583 920.943 384.861L919.998 388.778C919.443 388.093 918.795 387.75 918.054 387.75C917.48 387.75 917.026 387.944 916.693 388.333C916.378 388.722 916.22 389.269 916.22 389.972V394.333H919.526V398.167H916.304V411H911.47V398.167H905.47V411H900.637ZM905.387 394.333H911.554V390.083C911.554 389.88 911.563 389.667 911.582 389.444C911.6 389.204 911.637 388.907 911.693 388.556C910.933 388.019 910.045 387.75 909.026 387.75C907.915 387.75 907.026 388.102 906.359 388.806C905.711 389.509 905.387 390.454 905.387 391.639V394.333ZM938.5 411.556C936.852 411.556 935.343 411.157 933.972 410.361C932.602 409.565 931.509 408.491 930.694 407.139C929.898 405.787 929.5 404.296 929.5 402.667C929.5 401.019 929.898 399.528 930.694 398.194C931.509 396.843 932.602 395.769 933.972 394.972C935.343 394.176 936.852 393.778 938.5 393.778C939.648 393.778 940.731 393.972 941.75 394.361C942.787 394.731 943.704 395.287 944.5 396.028L943.25 400.944C942.787 400.185 942.167 399.528 941.389 398.972C940.63 398.398 939.731 398.111 938.694 398.111C937.824 398.111 937.046 398.315 936.361 398.722C935.676 399.13 935.139 399.676 934.75 400.361C934.361 401.046 934.167 401.815 934.167 402.667C934.167 403.5 934.361 404.269 934.75 404.972C935.139 405.657 935.676 406.204 936.361 406.611C937.046 407.019 937.824 407.222 938.694 407.222C939.731 407.222 940.63 406.944 941.389 406.389C942.167 405.815 942.787 405.148 943.25 404.389L944.5 409.306C943.704 410.046 942.787 410.611 941.75 411C940.731 411.37 939.648 411.556 938.5 411.556ZM954.513 411.444C952.976 411.444 951.578 411.046 950.319 410.25C949.059 409.454 948.05 408.398 947.291 407.083C946.55 405.75 946.18 404.278 946.18 402.667C946.18 401.056 946.55 399.583 947.291 398.25C948.05 396.917 949.059 395.861 950.319 395.083C951.578 394.287 952.976 393.889 954.513 393.889C955.587 393.889 956.569 394.083 957.457 394.472C958.346 394.843 959.106 395.361 959.735 396.028V394.333H963.902V411H959.735V409.306C959.106 409.972 958.346 410.5 957.457 410.889C956.569 411.259 955.587 411.444 954.513 411.444ZM955.096 407.194C955.911 407.194 956.652 406.991 957.319 406.583C957.985 406.176 958.513 405.63 958.902 404.944C959.309 404.259 959.513 403.5 959.513 402.667C959.513 401.833 959.309 401.074 958.902 400.389C958.513 399.704 957.985 399.157 957.319 398.75C956.652 398.343 955.911 398.139 955.096 398.139C954.282 398.139 953.541 398.343 952.874 398.75C952.207 399.157 951.67 399.704 951.263 400.389C950.874 401.074 950.68 401.833 950.68 402.667C950.68 403.5 950.874 404.259 951.263 404.944C951.67 405.63 952.207 406.176 952.874 406.583C953.541 406.991 954.282 407.194 955.096 407.194ZM967.56 411V394.333H971.893V396.167C972.486 395.389 973.217 394.796 974.088 394.389C974.977 393.981 975.902 393.778 976.865 393.778C977.847 393.778 978.773 393.981 979.643 394.389C980.514 394.796 981.245 395.389 981.838 396.167C982.486 395.389 983.291 394.796 984.254 394.389C985.217 393.981 986.264 393.778 987.393 393.778C988.578 393.778 989.69 394.056 990.727 394.611C991.764 395.148 992.606 395.944 993.254 397C993.902 398.037 994.227 399.306 994.227 400.806V411H989.393V401.5C989.393 400.611 989.134 399.824 988.615 399.139C988.097 398.454 987.347 398.111 986.365 398.111C985.847 398.111 985.347 398.241 984.865 398.5C984.402 398.741 984.023 399.111 983.727 399.611C983.449 400.093 983.31 400.704 983.31 401.444V411H978.477V401.5C978.477 400.907 978.356 400.352 978.115 399.833C977.893 399.315 977.551 398.898 977.088 398.583C976.643 398.269 976.097 398.111 975.449 398.111C974.93 398.111 974.43 398.241 973.949 398.5C973.486 398.741 973.106 399.111 972.81 399.611C972.532 400.093 972.393 400.704 972.393 401.444V411H967.56ZM1006.2 411.556C1004.33 411.556 1002.68 411.167 1001.25 410.389C999.828 409.611 998.717 408.546 997.921 407.194C997.125 405.824 996.727 404.259 996.727 402.5C996.727 400.815 997.115 399.324 997.893 398.028C998.671 396.713 999.717 395.676 1001.03 394.917C1002.37 394.157 1003.84 393.778 1005.45 393.778C1007.1 393.778 1008.57 394.157 1009.87 394.917C1011.16 395.657 1012.18 396.676 1012.92 397.972C1013.68 399.269 1014.06 400.741 1014.06 402.389V404.083H1003.89C1003.43 404.083 1002.99 404.056 1002.56 404C1002.13 403.944 1001.71 403.88 1001.28 403.806C1001.5 404.917 1002.05 405.824 1002.92 406.528C1003.81 407.213 1004.94 407.556 1006.31 407.556C1007.37 407.556 1008.31 407.343 1009.14 406.917C1010 406.491 1010.69 405.963 1011.23 405.333L1012.28 409.667C1011.45 410.296 1010.5 410.769 1009.45 411.083C1008.41 411.398 1007.33 411.556 1006.2 411.556ZM1001.17 400.889C1002.1 400.685 1003 400.583 1003.89 400.583H1006.84C1007.36 400.583 1007.85 400.602 1008.31 400.639C1008.77 400.676 1009.21 400.741 1009.62 400.833C1009.34 399.833 1008.83 399.046 1008.09 398.472C1007.37 397.898 1006.47 397.611 1005.39 397.611C1004.37 397.611 1003.49 397.907 1002.73 398.5C1001.99 399.074 1001.47 399.87 1001.17 400.889ZM1016.74 411V394.333H1021.07V397.194C1021.65 396.231 1022.37 395.491 1023.24 394.972C1024.13 394.435 1025.17 394.167 1026.35 394.167L1027.41 398.444C1027.05 398.333 1026.66 398.278 1026.21 398.278C1024.82 398.278 1023.7 398.731 1022.85 399.639C1022 400.528 1021.57 401.806 1021.57 403.472V411H1016.74ZM1036.47 411.444C1034.93 411.444 1033.53 411.046 1032.27 410.25C1031.01 409.454 1030 408.398 1029.24 407.083C1028.5 405.75 1028.13 404.278 1028.13 402.667C1028.13 401.056 1028.5 399.583 1029.24 398.25C1030 396.917 1031.01 395.861 1032.27 395.083C1033.53 394.287 1034.93 393.889 1036.47 393.889C1037.54 393.889 1038.52 394.083 1039.41 394.472C1040.3 394.843 1041.06 395.361 1041.69 396.028V394.333H1045.86V411H1041.69V409.306C1041.06 409.972 1040.3 410.5 1039.41 410.889C1038.52 411.259 1037.54 411.444 1036.47 411.444ZM1037.05 407.194C1037.86 407.194 1038.61 406.991 1039.27 406.583C1039.94 406.176 1040.47 405.63 1040.86 404.944C1041.26 404.259 1041.47 403.5 1041.47 402.667C1041.47 401.833 1041.26 401.074 1040.86 400.389C1040.47 399.704 1039.94 399.157 1039.27 398.75C1038.61 398.343 1037.86 398.139 1037.05 398.139C1036.23 398.139 1035.49 398.343 1034.83 398.75C1034.16 399.157 1033.62 399.704 1033.22 400.389C1032.83 401.074 1032.63 401.833 1032.63 402.667C1032.63 403.5 1032.83 404.259 1033.22 404.944C1033.62 405.63 1034.16 406.176 1034.83 406.583C1035.49 406.991 1036.23 407.194 1037.05 407.194ZM1051.85 411.556C1050.99 411.556 1050.28 411.269 1049.71 410.694C1049.13 410.12 1048.85 409.407 1048.85 408.556C1048.85 407.704 1049.13 406.991 1049.71 406.417C1050.28 405.843 1050.99 405.556 1051.85 405.556C1052.72 405.556 1053.43 405.843 1053.99 406.417C1054.56 406.991 1054.85 407.704 1054.85 408.556C1054.85 409.407 1054.56 410.12 1053.99 410.694C1053.43 411.269 1052.72 411.556 1051.85 411.556Z" fill="black"/>
</svg>
