<svg width="832" height="117" viewBox="0 0 832 117" fill="none" xmlns="http://www.w3.org/2000/svg">
<g clip-path="url(#clip0_34_2)">
<path d="M85.2426 103.034C87.1118 108.17 84.4639 113.848 79.3283 115.718C74.1927 117.587 68.5142 114.939 66.645 109.803C64.7758 104.668 67.4237 98.9892 72.5593 97.12C77.6949 95.2508 83.3734 97.8988 85.2426 103.034Z" fill="black"/>
<path d="M17.2075 17.38L25.1973 14.4719L21.8726 43.361L0.0374139 51.3084C-0.0956601 49.9459 0.123153 48.5311 0.743601 47.2005L12.7404 21.4734C13.6277 19.5705 15.2346 18.0981 17.2075 17.38Z" fill="black"/>
<path d="M26.0311 41.8475L29.3559 12.9583L51.4984 4.8991L72.6149 24.8924L26.0311 41.8475Z" fill="black"/>
<path d="M27.3851 45.5669L67.6319 83.6731L73.9687 28.6119L27.3851 45.5669Z" fill="black"/>
<path d="M99.9626 19.1509L78.1272 27.0983L71.8304 81.8123C72.0786 81.4522 72.3002 81.0666 72.4912 80.657L99.2564 23.2589C99.8769 21.9283 100.096 20.5134 99.9626 19.1509Z" fill="black"/>
<path d="M76.7734 23.3788L55.657 3.38551L63.6469 0.477425C65.6198 -0.240674 67.7973 -0.145605 69.7001 0.741715L95.4273 12.7385C96.7578 13.3589 97.8349 14.3021 98.6087 15.4314L76.7734 23.3788Z" fill="black"/>
<path d="M63.2195 84.9463C62.7979 84.83 62.3804 84.6771 61.9708 84.4861L4.57272 57.7209C3.24212 57.1005 2.16503 56.1572 1.39118 55.0279L23.2265 47.0805L63.2195 84.9463Z" fill="black"/>
<path d="M187.111 117.6C181.244 117.6 175.763 116.533 170.667 114.4C165.57 112.207 161.067 109.215 157.156 105.422C153.304 101.63 150.281 97.2148 148.089 92.1778C145.896 87.1407 144.8 81.7481 144.8 76C144.8 70.2519 145.896 64.8593 148.089 59.8222C150.281 54.7852 153.304 50.3704 157.156 46.5778C161.067 42.7852 165.57 39.8222 170.667 37.6889C175.763 35.4963 181.244 34.4 187.111 34.4C192.385 34.4 197.363 35.2593 202.044 36.9778C206.726 38.6963 210.904 41.1259 214.578 44.2667L210.044 62.9333C207.852 59.2593 204.83 56.1778 200.978 53.6889C197.126 51.1407 192.681 49.8667 187.644 49.8667C182.844 49.8667 178.489 51.0519 174.578 53.4222C170.726 55.7333 167.674 58.8741 165.422 62.8444C163.17 66.7556 162.044 71.1407 162.044 76C162.044 80.8 163.17 85.1852 165.422 89.1556C167.674 93.1259 170.726 96.2963 174.578 98.6667C178.489 100.978 182.844 102.133 187.644 102.133C192.622 102.133 197.037 100.889 200.889 98.4C204.8 95.8519 207.852 92.7407 210.044 89.0667L214.578 107.733C210.844 110.815 206.637 113.244 201.956 115.022C197.333 116.741 192.385 117.6 187.111 117.6ZM223.242 116V30.6667H238.708V66.6667C240.605 64.7704 242.768 63.3481 245.197 62.4C247.686 61.3926 250.323 60.8889 253.108 60.8889C256.901 60.8889 260.427 61.8074 263.686 63.6444C267.005 65.4222 269.671 68.0593 271.686 71.5556C273.76 74.9926 274.797 79.1704 274.797 84.0889V116H259.331V86.1333C259.331 83.1704 258.442 80.5333 256.664 78.2222C254.886 75.9111 252.338 74.7556 249.019 74.7556C246.353 74.7556 243.953 75.6741 241.819 77.5111C239.745 79.2889 238.708 82.1037 238.708 85.9556V116H223.242ZM306.114 117.778C302.381 117.778 298.855 116.889 295.536 115.111C292.218 113.274 289.521 110.637 287.447 107.2C285.432 103.704 284.425 99.4963 284.425 94.5778V62.6667H299.892V92.5333C299.892 95.4963 300.781 98.1333 302.558 100.444C304.395 102.756 306.944 103.911 310.203 103.911C312.869 103.911 315.24 102.963 317.314 101.067C319.447 99.1111 320.514 96.3259 320.514 92.7111V62.6667H335.981V116H321.936V110.4C320.04 112.77 317.699 114.607 314.914 115.911C312.188 117.156 309.255 117.778 306.114 117.778ZM373.875 117.778C368.601 117.778 363.771 116.504 359.386 113.956C355.001 111.407 351.505 107.97 348.897 103.644C346.349 99.3185 345.075 94.5481 345.075 89.3333C345.075 84.0593 346.349 79.2889 348.897 75.0222C351.505 70.6963 355.001 67.2593 359.386 64.7111C363.771 62.163 368.601 60.8889 373.875 60.8889C377.549 60.8889 381.016 61.5111 384.275 62.7556C387.594 63.9407 390.527 65.7185 393.075 68.0889L389.075 83.8222C387.594 81.3926 385.608 79.2889 383.119 77.5111C380.69 75.6741 377.816 74.7556 374.497 74.7556C371.712 74.7556 369.223 75.4074 367.031 76.7111C364.838 78.0148 363.119 79.763 361.875 81.9556C360.631 84.1481 360.008 86.6074 360.008 89.3333C360.008 92 360.631 94.4593 361.875 96.7111C363.119 98.9037 364.838 100.652 367.031 101.956C369.223 103.259 371.712 103.911 374.497 103.911C377.816 103.911 380.69 103.022 383.119 101.244C385.608 99.4074 387.594 97.2741 389.075 94.8444L393.075 110.578C390.527 112.948 387.594 114.756 384.275 116C381.016 117.185 377.549 117.778 373.875 117.778ZM436.583 116L415.339 86.6667L432.85 62.6667H449.472L432.228 85.3333L454.806 116H436.583ZM401.117 116V30.6667H416.583V116H401.117ZM460.794 116V30.6667H476.261V116H460.794ZM515.761 117.778C509.776 117.778 504.502 116.533 499.939 114.044C495.376 111.556 491.82 108.148 489.272 103.822C486.724 99.437 485.45 94.4296 485.45 88.8C485.45 83.4074 486.694 78.637 489.183 74.4889C491.672 70.2815 495.02 66.963 499.228 64.5333C503.494 62.1037 508.206 60.8889 513.361 60.8889C518.635 60.8889 523.346 62.1037 527.494 64.5333C531.643 66.9037 534.902 70.163 537.272 74.3111C539.702 78.4593 540.917 83.1704 540.917 88.4444V93.8667H508.383C506.902 93.8667 505.48 93.7778 504.117 93.6C502.754 93.4222 501.391 93.2148 500.028 92.9778C500.739 96.5333 502.487 99.437 505.272 101.689C508.117 103.881 511.731 104.978 516.117 104.978C519.494 104.978 522.517 104.296 525.183 102.933C527.909 101.57 530.131 99.8815 531.85 97.8667L535.228 111.733C532.561 113.748 529.539 115.259 526.161 116.267C522.843 117.274 519.376 117.778 515.761 117.778ZM499.672 83.6444C502.635 82.9926 505.539 82.6667 508.383 82.6667H517.806C519.465 82.6667 521.035 82.7259 522.517 82.8444C523.998 82.963 525.391 83.1704 526.694 83.4667C525.806 80.2667 524.176 77.7481 521.806 75.9111C519.494 74.0741 516.62 73.1556 513.183 73.1556C509.924 73.1556 507.08 74.1037 504.65 76C502.28 77.837 500.62 80.3852 499.672 83.6444ZM590.736 117.6C584.869 117.6 579.388 116.533 574.292 114.4C569.195 112.207 564.692 109.215 560.781 105.422C556.929 101.63 553.906 97.2148 551.714 92.1778C549.521 87.1407 548.425 81.7481 548.425 76C548.425 70.2519 549.521 64.8593 551.714 59.8222C553.906 54.7852 556.929 50.3704 560.781 46.5778C564.692 42.7852 569.195 39.8222 574.292 37.6889C579.388 35.4963 584.869 34.4 590.736 34.4C596.01 34.4 600.988 35.2593 605.669 36.9778C610.351 38.6963 614.529 41.1259 618.203 44.2667L613.669 62.9333C611.477 59.2593 608.455 56.1778 604.603 53.6889C600.751 51.1407 596.306 49.8667 591.269 49.8667C586.469 49.8667 582.114 51.0519 578.203 53.4222C574.351 55.7333 571.299 58.8741 569.047 62.8444C566.795 66.7556 565.669 71.1407 565.669 76C565.669 80.8 566.795 85.1852 569.047 89.1556C571.299 93.1259 574.351 96.2963 578.203 98.6667C582.114 100.978 586.469 102.133 591.269 102.133C596.247 102.133 600.662 100.889 604.514 98.4C608.425 95.8519 611.477 92.7407 613.669 89.0667L618.203 107.733C614.469 110.815 610.262 113.244 605.581 115.022C600.958 116.741 596.01 117.6 590.736 117.6ZM626.867 116V30.6667H642.333V66.6667C644.23 64.7704 646.393 63.3481 648.822 62.4C651.311 61.3926 653.948 60.8889 656.733 60.8889C660.526 60.8889 664.052 61.8074 667.311 63.6444C670.63 65.4222 673.296 68.0593 675.311 71.5556C677.385 74.9926 678.422 79.1704 678.422 84.0889V116H662.956V86.1333C662.956 83.1704 662.067 80.5333 660.289 78.2222C658.511 75.9111 655.963 74.7556 652.644 74.7556C649.978 74.7556 647.578 75.6741 645.444 77.5111C643.37 79.2889 642.333 82.1037 642.333 85.9556V116H626.867ZM716.761 117.778C710.776 117.778 705.502 116.533 700.939 114.044C696.376 111.556 692.82 108.148 690.272 103.822C687.724 99.437 686.45 94.4296 686.45 88.8C686.45 83.4074 687.694 78.637 690.183 74.4889C692.672 70.2815 696.02 66.963 700.228 64.5333C704.494 62.1037 709.206 60.8889 714.361 60.8889C719.635 60.8889 724.346 62.1037 728.494 64.5333C732.643 66.9037 735.902 70.163 738.272 74.3111C740.702 78.4593 741.917 83.1704 741.917 88.4444V93.8667H709.383C707.902 93.8667 706.48 93.7778 705.117 93.6C703.754 93.4222 702.391 93.2148 701.028 92.9778C701.739 96.5333 703.487 99.437 706.272 101.689C709.117 103.881 712.731 104.978 717.117 104.978C720.494 104.978 723.517 104.296 726.183 102.933C728.909 101.57 731.131 99.8815 732.85 97.8667L736.228 111.733C733.561 113.748 730.539 115.259 727.161 116.267C723.843 117.274 720.376 117.778 716.761 117.778ZM700.672 83.6444C703.635 82.9926 706.539 82.6667 709.383 82.6667H718.806C720.465 82.6667 722.035 82.7259 723.517 82.8444C724.998 82.963 726.391 83.1704 727.694 83.4667C726.806 80.2667 725.176 77.7481 722.806 75.9111C720.494 74.0741 717.62 73.1556 714.183 73.1556C710.924 73.1556 708.08 74.1037 705.65 76C703.28 77.837 701.62 80.3852 700.672 83.6444ZM768.003 117.778C764.388 117.778 760.714 117.185 756.981 116C753.306 114.815 750.432 113.215 748.358 111.2L752.181 96.6222C753.899 98.9926 756.269 101.067 759.292 102.844C762.373 104.622 765.544 105.511 768.803 105.511C770.995 105.511 772.566 105.096 773.514 104.267C774.521 103.437 775.025 102.43 775.025 101.244C775.025 99.8815 774.521 98.9037 773.514 98.3111C772.506 97.6593 771.469 97.1259 770.403 96.7111L762.936 93.8667C761.277 93.2148 759.381 92.3259 757.247 91.2C755.114 90.0741 753.247 88.4741 751.647 86.4C750.106 84.3259 749.336 81.6 749.336 78.2222C749.336 75.1407 750.106 72.2963 751.647 69.6889C753.188 67.0815 755.41 64.9778 758.314 63.3778C761.277 61.7185 764.832 60.8889 768.981 60.8889C772.832 60.8889 776.418 61.5407 779.736 62.8444C783.114 64.1481 785.573 65.6 787.114 67.2L783.558 81.2444C781.544 78.637 779.144 76.6519 776.358 75.2889C773.632 73.8667 771.025 73.1556 768.536 73.1556C766.64 73.1556 765.247 73.5407 764.358 74.3111C763.469 75.0815 763.025 75.9704 763.025 76.9778C763.025 77.7481 763.321 78.5185 763.914 79.2889C764.566 80 765.632 80.6519 767.114 81.2444L774.047 83.8222C776.062 84.5333 778.195 85.4815 780.447 86.6667C782.758 87.8519 784.714 89.5111 786.314 91.6444C787.914 93.7185 788.714 96.5926 788.714 100.267C788.714 105.422 786.788 109.63 782.936 112.889C779.144 116.148 774.166 117.778 768.003 117.778ZM803.839 116V74.9333H793.883V62.6667H804.106V44.8889H819.039V62.6667H829.617V74.9333H819.306V116H803.839Z" fill="black"/>
</g>
<defs>
<clipPath id="clip0_34_2">
<rect width="832" height="116.317" fill="white"/>
</clipPath>
</defs>
</svg>
